<svg width="135" height="38" viewBox="0 0 135 38" fill="none" xmlns="http://www.w3.org/2000/svg">
<path fill-rule="evenodd" clip-rule="evenodd" d="M0 25.3137C0.33607 24.806 0.744155 24.4434 1.4403 24.4434C2.16045 24.4434 2.80858 25.2895 2.66455 25.9907C2.54453 26.5709 2.13644 27.0061 1.63234 27.1028C1.00821 27.2237 0.504105 26.9819 0.168035 26.4017C0.14403 26.3533 0.072015 26.305 0.024005 26.2566C0 25.9423 0 25.628 0 25.3137Z" fill="#EB6400"/>
<path fill-rule="evenodd" clip-rule="evenodd" d="M25.0608 37.5713C24.7247 37.3054 24.3647 37.0636 24.2446 36.5801C24.1486 36.0482 24.2686 35.5888 24.6287 35.2503C25.0368 34.8635 25.5649 34.7426 26.093 35.0086C26.5731 35.2262 26.8132 35.613 26.8612 36.1932C26.9092 36.8702 26.4531 37.1845 26.093 37.5713C25.7569 37.5713 25.3969 37.5713 25.0608 37.5713Z" fill="#EB6400"/>
<path fill-rule="evenodd" clip-rule="evenodd" d="M23.4052 11.7989C23.4052 12.6209 22.8291 13.2254 22.1089 13.2012C21.3408 13.177 20.7646 12.5726 20.7646 11.8231C20.7646 11.0978 21.3648 10.445 22.0849 10.4692C22.7331 10.4692 23.4772 10.9769 23.4052 11.7989Z" fill="#EB6400"/>
<path fill-rule="evenodd" clip-rule="evenodd" d="M26.8613 11.8474C26.9573 12.6694 26.2131 13.1771 25.589 13.1771C24.7728 13.1771 24.2207 12.5727 24.2207 11.8232C24.2207 11.0979 24.7248 10.4935 25.565 10.4451C26.3331 10.4209 26.8613 11.0012 26.8613 11.8474Z" fill="#EB6400"/>
<path fill-rule="evenodd" clip-rule="evenodd" d="M26.8613 15.3046C26.8613 16.1507 26.3571 16.6826 25.541 16.6826C24.8208 16.6826 24.2207 16.054 24.2207 15.3287C24.2207 14.6034 24.7248 13.9748 25.517 13.9748C26.1891 13.9265 26.9573 14.4584 26.8613 15.3046Z" fill="#EB6400"/>
<path fill-rule="evenodd" clip-rule="evenodd" d="M19.9486 29.2787C19.9486 30.1007 19.4445 30.5842 18.6043 30.5842C17.8361 30.5842 17.332 30.0524 17.332 29.2303C17.332 28.4083 17.8601 27.9248 18.7003 27.9248C19.4445 27.949 19.9486 28.4809 19.9486 29.2787Z" fill="#EB6400"/>
<path fill-rule="evenodd" clip-rule="evenodd" d="M15.1954 24.4676C15.8436 24.3467 16.5397 25.1445 16.4917 25.749C16.4437 26.5951 15.9876 27.127 15.1714 27.127C14.3313 27.127 13.8271 26.6193 13.8271 25.749C13.8512 24.9753 14.3793 24.4676 15.1954 24.4676Z" fill="#EB6400"/>
<path fill-rule="evenodd" clip-rule="evenodd" d="M23.4052 15.3771C23.4772 16.1266 22.7811 16.6585 22.1089 16.6827C21.3888 16.7068 20.7646 16.0541 20.7646 15.353C20.7646 14.5551 21.3408 13.9507 22.1089 13.9749C22.8051 13.9749 23.4532 14.4101 23.4052 15.3771Z" fill="#EB6400"/>
<path fill-rule="evenodd" clip-rule="evenodd" d="M16.4917 15.3045C16.4917 16.1024 15.9156 16.6826 15.1714 16.6584C14.5473 16.6342 13.8272 16.1749 13.8512 15.2803C13.8752 14.555 14.4753 13.9265 15.1714 13.9265C15.8916 13.9506 16.4917 14.555 16.4917 15.3045Z" fill="#EB6400"/>
<path fill-rule="evenodd" clip-rule="evenodd" d="M19.948 15.3288C19.972 16.2233 19.3239 16.6585 18.6038 16.6585C17.8356 16.6585 17.2595 15.9332 17.3075 15.2562C17.3555 14.5551 17.9316 13.9265 18.6278 13.9507C19.2999 13.9507 20.0441 14.5551 19.948 15.3288Z" fill="#EB6400"/>
<path fill-rule="evenodd" clip-rule="evenodd" d="M16.4918 18.8103C16.4918 19.6081 15.9397 20.1641 15.1475 20.1641C14.4514 20.1641 13.8273 19.5839 13.8513 18.7619C13.8753 18.1091 14.3554 17.4805 15.1715 17.4564C15.8917 17.4322 16.5398 18.0124 16.4918 18.8103Z" fill="#EB6400"/>
<path fill-rule="evenodd" clip-rule="evenodd" d="M26.8613 18.8102C26.8613 19.608 26.3331 20.1641 25.565 20.1399C24.8208 20.1399 24.2207 19.5113 24.2207 18.7618C24.2207 18.0607 24.8208 17.4079 25.517 17.4321C26.1891 17.4563 26.9573 17.8915 26.8613 18.8102Z" fill="#EB6400"/>
<path fill-rule="evenodd" clip-rule="evenodd" d="M19.9479 11.8473C19.9719 12.7177 19.3718 13.1529 18.6517 13.177C17.8595 13.2254 17.2594 12.4517 17.3074 11.7506C17.3554 11.0495 17.9555 10.4209 18.6517 10.4451C19.2518 10.4692 20.0199 10.9528 19.9479 11.8473Z" fill="#EB6400"/>
<path fill-rule="evenodd" clip-rule="evenodd" d="M13.0351 15.3287C13.0351 16.054 12.4109 16.7068 11.7148 16.6584C10.9707 16.6101 10.4185 16.1749 10.3945 15.232C10.3945 14.5792 11.0187 13.9265 11.7148 13.9265C12.507 13.9506 13.1311 14.7243 13.0351 15.3287Z" fill="#EB6400"/>
<path fill-rule="evenodd" clip-rule="evenodd" d="M23.4046 18.8102C23.4046 19.5839 22.9005 20.1399 22.1564 20.1399C21.3882 20.1399 20.7881 19.5597 20.7881 18.8102C20.7881 18.0366 21.4122 17.3596 22.1084 17.408C22.8525 17.4805 23.5006 18.0849 23.4046 18.8102Z" fill="#EB6400"/>
<path fill-rule="evenodd" clip-rule="evenodd" d="M19.9482 18.8102C19.9962 19.608 19.3 20.1641 18.6519 20.1641C17.8357 20.1641 17.3076 19.608 17.3076 18.7618C17.3076 18.0607 17.9317 17.4321 18.6039 17.4321C19.4441 17.4321 20.0202 18.1816 19.9482 18.8102Z" fill="#EB6400"/>
<path fill-rule="evenodd" clip-rule="evenodd" d="M13.0347 18.8102C13.0347 19.6081 12.4826 20.1641 11.6905 20.1399C11.0183 20.1399 10.3702 19.6081 10.3942 18.7377C10.4182 18.0366 10.9943 17.3838 11.6905 17.4322C12.4586 17.4805 13.1068 18.0366 13.0347 18.8102Z" fill="#EB6400"/>
<path fill-rule="evenodd" clip-rule="evenodd" d="M8.25821 20.9861C9.05037 20.9861 9.55447 21.518 9.55447 22.3158C9.55447 23.0895 9.00236 23.6213 8.2342 23.6455C7.44204 23.6697 6.86592 22.9686 6.91393 22.2916C6.98594 21.4938 7.46604 20.9861 8.25821 20.9861Z" fill="#EB6400"/>
<path fill-rule="evenodd" clip-rule="evenodd" d="M10.3945 22.3158C10.3945 21.4938 10.8986 20.9861 11.7388 20.9861C12.507 20.9861 13.0351 21.4938 13.0351 22.2674C13.0351 23.0895 12.531 23.6455 11.7388 23.6455C10.9226 23.6455 10.3945 23.1136 10.3945 22.3158Z" fill="#EB6400"/>
<path fill-rule="evenodd" clip-rule="evenodd" d="M19.9482 22.2916C19.9482 23.0895 19.4441 23.6214 18.6519 23.6214C17.8357 23.6214 17.3076 23.0895 17.3076 22.2433C17.3076 21.4696 17.8357 20.9619 18.6519 20.9619C19.4441 20.9861 19.9482 21.4938 19.9482 22.2916Z" fill="#EB6400"/>
<path fill-rule="evenodd" clip-rule="evenodd" d="M6.93751 18.8344C6.84149 18.0849 7.46562 17.5047 8.23378 17.4321C8.92993 17.3838 9.57806 18.0607 9.57806 18.8102C9.57806 19.5597 8.97794 20.1641 8.20978 20.1399C7.44162 20.1399 6.93751 19.608 6.93751 18.8344Z" fill="#EB6400"/>
<path fill-rule="evenodd" clip-rule="evenodd" d="M26.8612 8.36584C26.9573 9.18785 26.1891 9.69556 25.565 9.69556C24.8208 9.71973 24.2207 9.06697 24.2207 8.36584C24.2207 7.61637 24.8448 6.9636 25.565 6.98777C26.3571 6.98777 26.8612 7.51966 26.8612 8.36584Z" fill="#EB6400"/>
<path fill-rule="evenodd" clip-rule="evenodd" d="M11.7141 24.4675C12.5062 24.4675 13.0344 24.9752 13.0344 25.7731C13.0344 26.5709 12.5062 27.1028 11.7381 27.1028C10.9219 27.1028 10.4178 26.5951 10.4178 25.7489C10.3938 24.9752 10.8979 24.4675 11.7141 24.4675Z" fill="#EB6400"/>
<path fill-rule="evenodd" clip-rule="evenodd" d="M18.6515 24.4675C19.4437 24.4675 19.9238 24.9994 19.9238 25.8214C19.9238 26.6192 19.3956 27.1269 18.6035 27.1269C17.8353 27.1269 17.3072 26.5709 17.2832 25.7972C17.2832 24.9752 17.9793 24.3466 18.6515 24.4675Z" fill="#EB6400"/>
<path fill-rule="evenodd" clip-rule="evenodd" d="M22.0845 24.4675C22.9007 24.4675 23.4048 24.9752 23.3808 25.8214C23.3808 26.5951 22.8767 27.127 22.1085 27.127C21.2683 27.127 20.7402 26.5951 20.7402 25.7731C20.7642 24.9752 21.2923 24.4675 22.0845 24.4675Z" fill="#EB6400"/>
<path fill-rule="evenodd" clip-rule="evenodd" d="M6.9375 25.7731C6.9375 24.9511 7.4416 24.4675 8.30578 24.4675C9.07394 24.4675 9.57805 24.9994 9.57805 25.7731C9.57805 26.5709 9.04994 27.1028 8.28178 27.1028C7.4416 27.127 6.9375 26.6193 6.9375 25.7731Z" fill="#EB6400"/>
<path fill-rule="evenodd" clip-rule="evenodd" d="M23.4052 29.2787C23.4052 30.1007 22.9011 30.5601 22.0849 30.6084C21.3168 30.6568 20.7646 29.8831 20.7646 29.2787C20.7887 28.4567 21.3168 27.949 22.1569 27.949C22.9011 27.949 23.4052 28.4809 23.4052 29.2787Z" fill="#EB6400"/>
<path fill-rule="evenodd" clip-rule="evenodd" d="M23.4046 32.7843C23.4046 33.6063 22.9005 34.0898 22.0604 34.0898C21.2922 34.0898 20.7881 33.5579 20.7881 32.7601C20.7881 31.9865 21.3402 31.4788 22.1084 31.4546C22.8765 31.4062 23.5007 32.1073 23.4046 32.7843Z" fill="#EB6400"/>
<path fill-rule="evenodd" clip-rule="evenodd" d="M26.8617 1.37878C26.8617 2.20079 26.3576 2.66015 25.4934 2.66015C24.7492 2.66015 24.2451 2.10408 24.2451 1.33043C24.2451 0.556775 24.7972 0.0248886 25.5654 0.000711967C26.2855 -0.0234647 26.9577 0.629305 26.8617 1.37878Z" fill="#EB6400"/>
<path fill-rule="evenodd" clip-rule="evenodd" d="M23.4052 4.86024C23.4052 5.70642 22.9251 6.1416 22.0129 6.1416C21.2688 6.1416 20.7646 5.58554 20.7646 4.81189C20.7646 4.08659 21.3648 3.50635 22.1089 3.50635C22.9011 3.48217 23.4052 4.01406 23.4052 4.86024Z" fill="#EB6400"/>
<path fill-rule="evenodd" clip-rule="evenodd" d="M25.5896 6.14166C24.8934 6.26255 24.1973 5.63395 24.2213 4.83612C24.2453 4.11083 24.8214 3.50641 25.5416 3.50641C26.3337 3.50641 26.8379 4.01412 26.8379 4.83612C26.8619 5.65813 26.3818 6.14166 25.5896 6.14166Z" fill="#EB6400"/>
<path fill-rule="evenodd" clip-rule="evenodd" d="M19.9484 8.39004C19.9484 9.06699 19.3483 9.71976 18.7002 9.71976C17.86 9.69558 17.2839 9.04281 17.3319 8.29334C17.3799 7.59221 17.956 6.96362 18.6522 6.9878C19.3483 6.9878 19.9964 7.47133 19.9484 8.39004Z" fill="#EB6400"/>
<path fill-rule="evenodd" clip-rule="evenodd" d="M23.4048 22.3159C23.4048 23.1137 22.9007 23.6214 22.0845 23.6214C21.3164 23.6214 20.7883 23.0653 20.7643 22.2917C20.7403 21.4697 21.4604 20.9136 22.1085 20.962C22.9007 21.0345 23.4048 21.4939 23.4048 22.3159Z" fill="#EB6400"/>
<path fill-rule="evenodd" clip-rule="evenodd" d="M4.80131 24.4675C5.59348 24.4675 6.09758 24.9994 6.09758 25.7972C6.09758 26.5951 5.54547 27.127 4.7293 27.127C3.96114 27.127 3.45703 26.5951 3.45703 25.7731C3.48104 24.9752 4.00915 24.4675 4.80131 24.4675Z" fill="#EB6400"/>
<path fill-rule="evenodd" clip-rule="evenodd" d="M16.4911 11.8473C16.4911 12.5726 15.867 13.2254 15.1709 13.2012C14.3547 13.177 13.8506 12.4034 13.8506 11.799C13.8506 11.0495 14.5707 10.4693 15.1949 10.4693C15.747 10.4451 16.5872 11.0012 16.4911 11.8473Z" fill="#EB6400"/>
<path fill-rule="evenodd" clip-rule="evenodd" d="M25.5655 24.4675C26.3577 24.4675 26.8378 24.9752 26.8378 25.7972C26.8378 26.5951 26.3337 27.1028 25.5655 27.1028C24.7494 27.1028 24.1973 26.5709 24.1973 25.7731C24.2213 24.9752 24.7494 24.4675 25.5655 24.4675Z" fill="#EB6400"/>
<path fill-rule="evenodd" clip-rule="evenodd" d="M26.862 32.7843C26.982 33.4371 26.2618 34.114 25.5177 34.0898C24.7735 34.0898 24.1974 33.3645 24.2214 32.7359C24.2454 32.0106 24.8215 31.4304 25.5657 31.4304C26.3099 31.4062 26.958 32.059 26.862 32.7843Z" fill="#EB6400"/>
<path fill-rule="evenodd" clip-rule="evenodd" d="M3.48096 22.2916C3.36093 21.6147 4.08108 20.9135 4.80123 20.9619C5.59339 21.0344 6.0975 21.4938 6.0975 22.2916C6.0975 22.9927 5.49738 23.6213 4.80123 23.6213C3.98506 23.6455 3.48096 23.1378 3.48096 22.2916Z" fill="#EB6400"/>
<path fill-rule="evenodd" clip-rule="evenodd" d="M16.4911 22.2674C16.4911 23.0895 15.963 23.6213 15.1709 23.6213C14.3547 23.6213 13.8506 23.0653 13.8506 22.2191C13.8506 21.4696 14.4027 20.9861 15.2429 20.9861C15.963 20.9861 16.4911 21.518 16.4911 22.2674Z" fill="#EB6400"/>
<path fill-rule="evenodd" clip-rule="evenodd" d="M23.4053 8.31752C23.5013 9.09118 22.7572 9.71977 22.133 9.67142C21.3649 9.62306 20.8128 9.23624 20.7888 8.26917C20.7648 7.56805 21.3889 6.93945 22.085 6.93945C22.7092 6.96363 23.5013 7.47134 23.4053 8.31752Z" fill="#EB6400"/>
<path fill-rule="evenodd" clip-rule="evenodd" d="M26.8613 22.3158C26.8613 23.1136 26.3571 23.6213 25.541 23.6213C24.8208 23.6213 24.2207 23.0169 24.2207 22.2674C24.2207 21.4696 24.7488 21.0102 25.541 20.9377C26.2371 20.9135 26.9813 21.5905 26.8613 22.3158Z" fill="#EB6400"/>
<path fill-rule="evenodd" clip-rule="evenodd" d="M26.8613 29.2787C26.8613 30.0765 26.3571 30.5842 25.589 30.5842C24.7488 30.5842 24.2207 30.0524 24.2207 29.2303C24.2207 28.5534 24.7968 27.8765 25.613 27.9248C26.3571 27.9732 26.8613 28.4809 26.8613 29.2787Z" fill="#EB6400"/>
<path fill-rule="evenodd" clip-rule="evenodd" d="M116.4 26.595C115.464 26.595 114.576 26.595 113.664 26.595C113.664 26.4258 113.64 26.3049 113.64 26.1599C113.64 21.4454 113.64 16.731 113.64 12.0165C113.64 11.7264 113.712 11.5571 114 11.4363C115.032 11.0253 116.064 10.711 117.192 10.6143C117.889 10.5659 118.585 10.4208 119.281 10.445C120.793 10.4934 122.305 10.6384 123.602 11.5813C123.89 11.7989 124.13 12.0649 124.394 12.3308C125.306 11.4604 126.386 10.9044 127.611 10.6626C129.243 10.3483 130.875 10.3241 132.388 11.0736C133.876 11.7989 134.764 13.0803 134.788 14.7968C134.812 18.5442 134.788 22.3158 134.788 26.0632C134.788 26.2324 134.788 26.4016 134.788 26.595C133.852 26.595 132.988 26.595 132.027 26.595C132.027 26.4258 132.027 26.2566 132.027 26.0873C132.027 22.4125 132.003 18.7376 132.051 15.0869C132.075 13.7814 131.091 12.5242 129.747 12.355C128.523 12.1857 127.394 12.355 126.338 13.0561C125.858 13.3704 125.594 13.733 125.594 14.41C125.642 18.3024 125.618 22.1707 125.618 26.0632C125.618 26.2324 125.618 26.4016 125.618 26.6192C124.706 26.6192 123.818 26.6192 122.858 26.6192C122.858 26.4742 122.858 26.3049 122.858 26.1357C122.858 22.5092 122.858 18.8827 122.858 15.2562C122.858 14.3858 122.594 13.588 121.897 13.0319C121.345 12.5967 120.697 12.355 120.025 12.3066C118.945 12.2341 117.865 12.2583 116.808 12.6209C116.472 12.7418 116.352 12.8869 116.352 13.2253C116.352 17.5046 116.352 21.7839 116.352 26.0632C116.4 26.184 116.4 26.3533 116.4 26.595Z" fill="#101010"/>
<path fill-rule="evenodd" clip-rule="evenodd" d="M41.4805 10.8077C42.4167 10.8077 43.2808 10.8077 44.241 10.8077C44.241 10.9769 44.241 11.122 44.241 11.267C44.241 15.9573 44.241 20.6234 44.241 25.3137C44.241 25.6521 44.121 25.8214 43.833 25.9423C42.5847 26.4258 41.3124 26.8126 39.9682 26.861C39.224 26.8852 38.4799 26.9819 37.7357 26.9335C36.2234 26.8368 34.8071 26.4983 33.7269 25.2895C33.1027 24.5642 32.7187 23.7422 32.6947 22.8235C32.6226 18.8585 32.6226 14.8935 32.5986 10.9286C32.5986 10.9044 32.6226 10.8802 32.6226 10.8319C33.5108 10.8319 34.375 10.8319 35.3352 10.8319C35.3352 11.0011 35.3352 11.1703 35.3352 11.3154C35.3352 14.821 35.3112 18.3024 35.3592 21.8081C35.3592 22.3158 35.4792 22.8718 35.6713 23.3312C36.1034 24.4433 37.0155 24.951 38.1438 25.0477C39.08 25.1203 40.0162 25.0477 40.9284 24.7093C41.3124 24.5642 41.5045 24.395 41.5045 23.9114C41.4805 19.7047 41.4805 15.498 41.4805 11.2912C41.4805 11.1462 41.4805 11.0011 41.4805 10.8077Z" fill="#101010"/>
<path fill-rule="evenodd" clip-rule="evenodd" d="M69.1581 11.5572C68.9421 12.0407 68.7261 12.4759 68.534 12.9111C68.438 13.1287 68.342 13.177 68.1499 13.032C67.4538 12.5484 66.6376 12.3067 65.7974 12.2583C64.7652 12.21 63.493 12.5968 63.0849 13.999C62.7728 15.0628 63.2049 16.2958 64.1891 16.8035C65.1013 17.2871 66.0615 17.6497 66.9977 18.1091C68.1499 18.6893 69.1101 19.4871 69.4702 20.7685C70.0943 22.9928 69.3022 24.9752 67.1657 26.1599C65.8695 26.8852 64.4532 26.9819 62.9889 26.8127C62.0047 26.6918 61.0685 26.45 60.2043 25.9907C59.9162 25.8456 59.8682 25.7005 60.0122 25.4346C60.2523 24.9752 60.4443 24.5159 60.6604 24.0324C61.6686 24.7093 62.7968 25.0236 63.9971 24.9752C65.2693 24.9269 66.3736 24.2499 66.7576 23.0169C67.1177 21.8806 66.6856 20.5993 65.7254 20.0674C64.8853 19.608 63.9971 19.2695 63.1329 18.8585C60.2523 17.5288 59.5561 14.6518 61.2125 12.2583C61.9326 11.2187 63.0609 10.711 64.3331 10.4934C65.7254 10.2758 67.0457 10.5176 68.318 11.0253C68.582 11.1704 68.8461 11.3638 69.1581 11.5572Z" fill="#101010"/>
<path fill-rule="evenodd" clip-rule="evenodd" d="M77.7521 10.7594C77.7521 11.3396 77.7521 11.8473 77.7521 12.4034C76.7919 12.4034 75.8317 12.4034 74.8235 12.4034C74.8235 12.5968 74.8235 12.766 74.8235 12.9111C74.8235 16.0782 74.7995 19.2212 74.8475 22.3883C74.8475 22.9202 75.0155 23.4763 75.1836 24.0082C75.4236 24.7335 76.5518 25.0236 77.128 24.9269C77.32 24.9027 77.512 24.8302 77.7521 24.7818C77.7521 25.3137 77.7521 25.8456 77.7521 26.3775C77.7521 26.45 77.6561 26.5709 77.5841 26.5709C75.9517 26.9577 74.4154 26.8368 73.1431 25.6038C72.519 24.9994 72.1829 24.2016 72.1829 23.3312C72.1349 19.874 72.1109 16.4167 72.0869 12.9594C72.0869 12.7902 72.0869 12.621 72.0869 12.4034C71.4868 12.4034 70.9107 12.4034 70.3105 12.4034C70.3105 11.8473 70.3105 11.3154 70.3105 10.7594C70.8867 10.7594 71.4628 10.7594 72.0869 10.7594C72.0869 10.3242 72.0869 9.93735 72.0869 9.52635C72.0869 8.82523 72.0869 8.09993 72.0869 7.3988C72.0869 7.15704 72.1829 7.06033 72.375 7.01198C73.1671 6.79439 73.9833 6.55262 74.8235 6.31085C74.8235 7.78563 74.8235 9.23623 74.8235 10.7352C75.8077 10.7594 76.7679 10.7594 77.7521 10.7594Z" fill="#101010"/>
<path fill-rule="evenodd" clip-rule="evenodd" d="M82.2653 26.595C81.3291 26.595 80.4409 26.595 79.5527 26.595C79.5527 21.5905 79.5527 16.6101 79.5527 11.6055C81.7612 10.445 84.1617 10.4692 86.6582 10.5417C86.4662 11.1703 86.2742 11.7747 86.0581 12.3792C86.0341 12.4517 85.794 12.4759 85.674 12.4517C84.6898 12.2824 83.7296 12.2341 82.7694 12.5967C82.4333 12.7176 82.2893 12.8627 82.2893 13.2737C82.3133 17.5288 82.2893 21.8081 82.2893 26.0631C82.2653 26.2082 82.2653 26.4016 82.2653 26.595Z" fill="#101010"/>
<path fill-rule="evenodd" clip-rule="evenodd" d="M58.8365 15.8607C58.4765 14.265 57.7083 12.8628 56.412 11.8473C55.0438 10.7836 53.4114 10.5176 51.7311 10.4451C51.1309 10.4209 50.5068 10.5418 49.9067 10.6143C48.9225 10.711 47.9623 10.977 47.0741 11.4122C46.786 11.5331 46.666 11.7023 46.666 12.0649C46.69 18.8828 46.666 25.7248 46.666 32.5426C46.666 32.6876 46.666 32.8085 46.69 32.9778C47.6262 32.7118 48.5144 32.4459 49.4266 32.1558C49.4266 30.27 49.4266 28.4084 49.4266 26.5226C50.8429 26.9094 52.2592 27.0061 53.6755 26.6918C55.9559 26.1841 57.5163 24.7819 58.3804 22.6301C59.2446 20.4542 59.3406 18.1575 58.8365 15.8607ZM56.268 19.9707C56.148 21.1795 55.8599 22.34 55.1638 23.3313C54.4436 24.395 53.4354 24.9995 52.1391 25.1687C51.323 25.2654 50.5548 25.1929 49.7867 24.9995C49.4746 24.9269 49.4266 24.7819 49.4266 24.4917C49.4266 22.5576 49.4266 20.6235 49.4266 18.7135C49.4266 16.8036 49.4266 14.9178 49.4266 13.0078C49.4266 12.6452 49.5226 12.4759 49.8827 12.3792C51.323 11.9924 52.7393 11.9441 54.0836 12.6935C54.9717 13.1771 55.5238 13.9749 55.8599 14.942C56.412 16.5618 56.436 18.2542 56.268 19.9707Z" fill="#101010"/>
<path fill-rule="evenodd" clip-rule="evenodd" d="M111.215 15.5464C111.215 14.8211 111.119 14.12 110.855 13.443C110.423 12.3067 109.655 11.5089 108.526 11.0253C107.398 10.5418 106.222 10.3967 104.998 10.5176C104.157 10.5902 103.293 10.6869 102.477 10.8803C101.757 11.0495 101.085 11.3396 100.365 11.6056C100.629 12.21 100.845 12.7177 101.061 13.2254C101.277 13.1529 101.469 13.0804 101.637 13.0078C103.101 12.4034 104.589 12.0408 106.198 12.3309C107.326 12.5243 108.19 13.0804 108.478 14.2408C108.622 14.8694 108.622 15.5464 108.694 16.2233C108.214 16.2959 107.806 16.3684 107.398 16.4167C105.934 16.5618 104.493 16.8519 103.125 17.3838C101.997 17.819 100.965 18.3992 100.269 19.4388C99.5484 20.5268 99.3564 21.7356 99.5484 23.0411C99.7405 24.4192 100.437 25.4105 101.637 26.0632C102.813 26.716 104.109 26.8611 105.406 26.9094C106.294 26.9336 107.206 26.8852 108.094 26.7402C109.006 26.5709 109.919 26.2566 110.831 25.9907C111.167 25.894 111.239 25.6764 111.239 25.3379C111.215 22.0983 111.215 18.8102 111.215 15.5464ZM108.622 24.6368C108.622 24.7335 108.502 24.9269 108.406 24.9511C107.806 25.0962 107.206 25.2412 106.582 25.3138C105.718 25.4105 104.878 25.3621 104.037 25.072C102.789 24.6368 102.165 23.7181 102.117 22.4126C102.069 21.2037 102.357 20.1399 103.293 19.3179C104.013 18.6893 104.902 18.375 105.814 18.1816C106.726 17.9882 107.638 17.819 108.622 17.6497C108.646 20.0191 108.646 22.3158 108.622 24.6368Z" fill="#101010"/>
<path fill-rule="evenodd" clip-rule="evenodd" d="M97.892 13.1287C97.3879 12.21 96.6198 11.5089 95.6596 11.0737C94.2433 10.4209 92.755 10.3725 91.2667 10.6385C89.7544 10.9044 88.5301 11.7023 87.6179 12.9595C86.5857 14.3617 86.2256 16.0057 86.1056 17.6981C86.0096 19.0761 86.1056 20.4542 86.4417 21.8081C86.7777 23.0895 87.3539 24.25 88.3141 25.1687C89.6823 26.4742 91.4107 26.9819 93.2591 26.9819C94.1953 26.9819 95.1795 26.8852 96.0917 26.716C96.8838 26.5709 97.652 26.2324 98.4922 25.9423C98.2041 25.2654 97.9641 24.6851 97.724 24.1291C97.628 24.1533 97.58 24.1533 97.532 24.1533C95.9716 24.9269 94.3633 25.1687 92.659 24.9027C91.0266 24.661 89.8744 23.7664 89.2983 22.1949C89.0102 21.4213 88.8422 20.6235 88.6021 19.7531C92.0828 19.2696 95.4915 18.786 98.9483 18.3025C99.0443 16.4651 98.7802 14.7243 97.892 13.1287ZM88.5541 18.2783C88.5781 17.6981 88.5781 17.1178 88.6741 16.5618C88.8182 15.5947 89.0582 14.6518 89.6103 13.8056C90.5225 12.4517 91.9628 12.0649 93.4511 12.3067C95.0835 12.5726 95.8996 13.8782 96.1877 15.3046C96.3077 15.8848 96.3317 16.4892 96.4037 17.142C93.7632 17.5047 91.1947 17.8915 88.5541 18.2783Z" fill="#101010"/>
</svg>